<svg width="1120" height="240" viewBox="0 0 1120 240" fill="none" xmlns="http://www.w3.org/2000/svg">
<path d="M50.3 29.9006L0 59.9006V119.701V179.401L50.5 209.601L100.9 239.701L147.2 212.101C172.7 196.901 195.2 183.401 197.3 182.101L201 179.701V119.401L200.9 59.2006L151.4 29.7006C124.2 13.5006 101.6 0.100558 101.2 0.000557952C100.8 -0.099442 77.9 13.3006 50.3 29.9006ZM144.5 38.7006C166.2 51.6006 184 62.5006 184 62.8006C184 63.2006 177.4 67.4006 169.4 72.2006C156.5 79.9006 154.5 80.8006 152.6 79.8006C151.5 79.1006 139.9 72.2006 127 64.4006L103.5 50.2006L103.2 32.4006C103 20.6006 103.3 14.6006 104 14.9006C104.5 15.0006 122.7 25.8006 144.5 38.7006ZM97 32.9006L96.9 50.2006L71.6 65.3006L46.4 80.4006L32.5 72.1006C24.8 67.6006 18.4 63.5006 18.3 63.0006C18.1 62.3006 94.6 15.8006 96.3 15.7006C96.7 15.7006 97 23.5006 97 32.9006ZM124.5 70.2006C137.4 77.9006 147.9 84.4006 147.9 84.7006C148 85.6006 101.1 112.901 100.2 112.501C95.7 110.701 53.1 84.2006 53.7 83.6006C55.3 82.1006 99.5 55.8006 100.2 56.0006C100.6 56.1006 111.5 62.5006 124.5 70.2006ZM26.4 81.7006L39 89.2006V121.801V154.501L25.5 162.501C18.1 166.901 12 170.201 12 169.901C12 168.001 12 75.1006 12 74.4006C12 73.2006 12.4 73.4006 26.4 81.7006ZM190 122.601V171.601L175.5 162.901L161 154.301L161.2 122.301L161.5 90.2006L175 82.0006C182.4 77.5006 188.8 73.7006 189.3 73.7006C189.7 73.7006 190 95.7006 190 122.601ZM87.8 118.501L95 122.901V153.701V184.401L70 169.501L45 154.601V123.701V92.8006L62.8 103.401C72.5 109.201 83.8 116.001 87.8 118.501ZM155 124.101V154.601L131.6 168.601C118.7 176.401 107.7 182.701 107.1 182.701C106.3 182.701 106 173.801 106 152.901V123.201L130.3 108.501C143.6 100.501 154.6 93.9006 154.8 93.8006C154.9 93.7006 155 107.401 155 124.101ZM68.9 176.301L95 191.901V207.301C95 215.901 94.7 222.601 94.3 222.401C91.7 221.001 22.8 179.901 19.7 178.001L15.8 175.601L28.2 168.201C34.9 164.101 41 160.801 41.6 160.701C42.3 160.701 54.5 167.701 68.9 176.301ZM172.2 168.301C179.3 172.501 184.8 176.301 184.3 176.701C182.9 177.801 109.2 221.701 107.5 222.301C106.1 222.901 106 221.101 106.2 207.101L106.5 191.201L131.9 175.901C145.9 167.601 157.7 160.701 158.3 160.701C158.8 160.701 165 164.101 172.2 168.301Z" fill="black"/>
<path d="M362.1 162.65V176H315V68H360.6V80.75H328.35L329.7 84.5V107.45L328.35 111.2H358.8V124.55H328.5L329.7 128V158.9L328.35 162.65H362.1ZM437.895 135.95L438.045 122.75C438.045 118.75 437.945 115.75 437.745 113.75C437.345 109.55 434.995 107.35 430.695 107.15L416.895 111.2L418.245 115.4V176C411.545 176 407.645 175.65 406.545 174.95C405.445 174.15 404.895 171.5 404.895 167V95.45C410.695 95.45 414.345 95.6 415.845 95.9C417.345 96.2 418.145 97.1 418.245 98.6L429.345 94.4C435.445 94.4 439.445 94.8 441.345 95.6C443.245 96.4 444.695 97.1 445.695 97.7C446.695 98.3 447.595 99.55 448.395 101.45C449.195 103.25 449.745 104.95 450.045 106.55C450.345 108.05 450.645 110.5 450.945 113.9C451.245 118.8 451.395 126.2 451.395 136.1V176C444.695 176 440.745 175.65 439.545 174.95C438.445 174.15 437.895 171.5 437.895 167V135.95ZM506.15 87.8C503.75 87.8 501.65 86.9 499.85 85.1C498.05 83.2 497.15 81.05 497.15 78.65C497.15 76.15 498.05 74.05 499.85 72.35C501.65 70.65 503.75 69.8 506.15 69.8C508.55 69.8 510.65 70.65 512.45 72.35C514.25 74.05 515.15 76.15 515.15 78.65C515.15 81.05 514.25 83.2 512.45 85.1C510.65 86.9 508.55 87.8 506.15 87.8ZM499.55 167.6V95.45C506.25 95.45 510.15 95.85 511.25 96.65C512.35 97.35 512.9 99.95 512.9 104.45V176.6C506.2 176.6 502.3 176.25 501.2 175.55C500.1 174.75 499.55 172.1 499.55 167.6ZM587.371 191.75C591.271 191.75 593.771 191.05 594.871 189.65C595.971 188.35 596.521 186.35 596.521 183.65C596.521 181.05 595.971 179.3 594.871 178.4C593.871 177.5 591.571 177.05 587.971 177.05C574.171 177.05 566.071 176.4 563.671 175.1C561.371 173.7 560.221 168.95 560.221 160.85C560.221 155.35 562.371 150.8 566.671 147.2C564.371 145.1 562.721 142.6 561.721 139.7C560.721 136.7 560.221 132.55 560.221 127.25C560.221 121.95 560.221 118.5 560.221 116.9C560.321 115.3 560.421 113.25 560.521 110.75C560.721 108.25 561.021 106.5 561.421 105.5C561.821 104.4 562.371 103.05 563.071 101.45C563.871 99.85 564.821 98.75 565.921 98.15C567.021 97.55 568.371 96.9 569.971 96.2C572.571 95 577.071 94.4 583.471 94.4H610.621C610.621 99.2 610.171 102.4 609.271 104C608.371 105.6 606.571 106.5 603.871 106.7C605.671 110.6 606.571 116.5 606.571 124.4V131.15C606.571 136.05 606.371 139.35 605.971 141.05C605.571 142.75 605.071 144.45 604.471 146.15C603.971 147.85 603.321 149.05 602.521 149.75C601.821 150.45 600.871 151.3 599.671 152.3C598.571 153.3 597.271 154 595.771 154.4C591.471 155.3 587.121 155.75 582.721 155.75C578.421 155.75 575.721 156.05 574.621 156.65C573.521 157.25 572.971 158.35 572.971 159.95C572.971 161.55 573.221 162.55 573.721 162.95C574.821 163.85 579.721 164.3 588.421 164.3C597.121 164.3 602.771 165.35 605.371 167.45C607.971 169.55 609.271 174.6 609.271 182.6C609.271 190.7 607.771 196.3 604.771 199.4C601.871 202.5 596.121 204.05 587.521 204.05H578.521C573.721 204.05 570.921 203.55 570.121 202.55C569.321 201.65 568.921 198.4 568.921 192.8L587.371 191.75ZM590.521 140.9C591.921 139.2 592.671 136.85 592.771 133.85C592.871 130.75 592.921 127.65 592.921 124.55C592.921 121.35 592.871 119.1 592.771 117.8C592.771 116.4 592.621 114.85 592.321 113.15C592.021 111.35 591.571 110.15 590.971 109.55C589.171 107.95 586.321 107.15 582.421 107.15C578.621 107.15 576.221 108.3 575.221 110.6C574.221 112.8 573.721 117.45 573.721 124.55C573.721 131.55 574.271 136.45 575.371 139.25C576.571 141.95 579.021 143.3 582.721 143.3C586.521 143.3 589.121 142.5 590.521 140.9ZM700.438 176C693.738 176 689.838 175.65 688.738 174.95C687.638 174.15 687.088 171.5 687.088 167L686.938 130.25V124.4C686.938 122.1 686.938 120.35 686.938 119.15C687.038 117.95 687.038 116.6 686.938 115.1C686.838 113.5 686.638 112.35 686.338 111.65C686.138 110.85 685.838 110.05 685.438 109.25C684.738 107.85 683.238 107.15 680.938 107.15L667.588 111.05L668.938 115.4V176C662.238 176 658.338 175.65 657.238 174.95C656.138 174.15 655.588 171.5 655.588 167V95.45C661.088 95.45 664.588 95.6 666.088 95.9C667.588 96.2 668.488 97.1 668.788 98.6L680.038 94.4C684.438 94.4 687.788 94.8 690.088 95.6C692.388 96.3 694.438 97.7 696.238 99.8L710.038 94.4C715.938 94.4 719.888 94.85 721.888 95.75C723.988 96.55 725.488 97.25 726.388 97.85C727.388 98.45 728.238 99.7 728.938 101.6C729.738 103.5 730.288 105.2 730.588 106.7C730.988 108.2 731.288 110.7 731.488 114.2C731.788 119.4 731.938 126.7 731.938 136.1V176C725.138 176 721.188 175.65 720.088 174.95C718.988 174.15 718.438 171.5 718.438 167V135.95C718.438 122.15 718.288 114.45 717.988 112.85C717.488 109.95 716.088 108.2 713.788 107.6C712.988 107.4 711.988 107.25 710.788 107.15L699.088 110.6L700.438 114.8V176ZM804.577 114.05L804.727 110C804.727 108.6 804.577 107.85 804.277 107.75C803.977 107.65 803.627 107.45 803.227 107.15C802.827 106.75 802.277 106.65 801.577 106.85C800.977 107.05 800.227 107.1 799.327 107L791.227 108.05C789.127 108.35 787.327 108.5 785.827 108.5C784.327 108.5 783.177 108.15 782.377 107.45C781.577 106.75 780.777 103.55 779.977 97.85L797.377 94.4C804.477 94.4 808.927 94.95 810.727 96.05C812.527 97.05 813.827 97.9 814.627 98.6C815.427 99.3 815.977 100.7 816.277 102.8C816.777 105.4 817.027 109.5 817.027 115.1V176C811.227 176 807.577 175.7 806.077 175.1C804.577 174.5 803.777 173.05 803.677 170.75L791.227 177.05C788.427 177.05 786.327 177 784.927 176.9C783.627 176.9 782.277 176.5 780.877 175.7C779.577 174.9 778.677 174.1 778.177 173.3C777.777 172.5 777.377 170.8 776.977 168.2C776.477 165.1 776.227 158.75 776.227 149.15V138.8C776.227 127.5 786.077 121.65 805.777 121.25L804.577 117.65V114.05ZM790.327 164.3C790.427 164.3 795.477 162.4 805.477 158.6L803.977 154.25V136.4L805.177 132.95C801.077 133.05 797.477 133.45 794.377 134.15C791.277 134.85 789.727 135.8 789.727 137L789.577 156.8C789.577 161.8 789.827 164.3 790.327 164.3ZM916.522 88.85C917.422 94.55 917.922 99.35 918.022 103.25C918.222 107.05 918.322 112.1 918.322 118.4V131.3C918.322 138.7 918.072 144.1 917.572 147.5C917.072 150.8 916.522 154 915.922 157.1C915.322 160.1 914.572 162.4 913.672 164C912.772 165.6 911.622 167.4 910.222 169.4C908.922 171.3 907.422 172.7 905.722 173.6C901.522 175.9 896.722 177.05 891.322 177.05L862.822 176V67.7L891.322 66.2C896.522 66.2 900.872 67.25 904.372 69.35C907.972 71.35 910.672 73.65 912.472 76.25C914.272 78.85 915.622 83.05 916.522 88.85ZM891.322 163.7C894.622 163.7 897.072 162.55 898.672 160.25C899.572 158.95 900.322 157.7 900.922 156.5C901.622 155.3 902.122 153.5 902.422 151.1C902.822 148.7 903.122 146.65 903.322 144.95C903.622 143.25 903.822 140.8 903.922 137.6C904.022 134.3 904.072 131.7 904.072 129.8V112.55C904.072 105.55 903.872 100.95 903.472 98.75C903.172 96.45 902.822 94.15 902.422 91.85C902.122 89.45 901.622 87.7 900.922 86.6C900.322 85.4 899.572 84.2 898.672 83C897.072 80.7 894.622 79.55 891.322 79.55H875.872L877.072 83.3V159.95L875.722 163.7H891.322ZM1015.74 176C1010.64 176 1007.54 175.6 1006.44 174.8C1005.44 174 1004.49 171.35 1003.59 166.85L998.493 141.5H979.593L973.443 176H969.993C965.193 176 962.143 175.75 960.843 175.25C959.543 174.65 958.893 173.35 958.893 171.35C958.893 169.25 966.493 134.8 981.693 68H996.093L1020.69 176H1015.74ZM988.143 95.3L982.593 124.55L981.393 127.1H996.843C996.743 127 996.493 126.55 996.093 125.75C995.693 124.85 995.493 124.35 995.493 124.25L989.643 95.3H988.143ZM1090.31 177.05C1079.01 177.05 1071.31 172.75 1067.21 164.15C1063.21 155.55 1061.21 141.35 1061.21 121.55C1061.21 101.75 1063.36 87.6 1067.66 79.1C1071.96 70.5 1079.51 66.2 1090.31 66.2C1101.21 66.2 1108.76 70.45 1112.96 78.95C1117.16 87.45 1119.26 101.65 1119.26 121.55C1119.26 141.45 1117.26 155.7 1113.26 164.3C1109.36 172.8 1101.71 177.05 1090.31 177.05ZM1075.46 121.1C1075.46 135.4 1076.56 146.1 1078.76 153.2C1080.96 160.2 1084.81 163.7 1090.31 163.7C1095.91 163.7 1099.81 160.2 1102.01 153.2C1104.21 146.1 1105.31 135.45 1105.31 121.25C1105.31 93.45 1100.31 79.55 1090.31 79.55C1080.41 79.55 1075.46 93.4 1075.46 121.1Z" fill="black"/>
</svg>
