<svg width="1067" height="240" viewBox="0 0 1067 240" fill="none" xmlns="http://www.w3.org/2000/svg">
<path d="M50.3 29.9006L0 59.9006V119.701V179.401L50.5 209.601L100.9 239.701L147.2 212.101C172.7 196.901 195.2 183.401 197.3 182.101L201 179.701V119.401L200.9 59.2006L151.4 29.7006C124.2 13.5006 101.6 0.100558 101.2 0.000557952C100.8 -0.099442 77.9 13.3006 50.3 29.9006ZM144.5 38.7006C166.2 51.6006 184 62.5006 184 62.8006C184 63.2006 177.4 67.4006 169.4 72.2006C156.5 79.9006 154.5 80.8006 152.6 79.8006C151.5 79.1006 139.9 72.2006 127 64.4006L103.5 50.2006L103.2 32.4006C103 20.6006 103.3 14.6006 104 14.9006C104.5 15.0006 122.7 25.8006 144.5 38.7006ZM97 32.9006L96.9 50.2006L71.6 65.3006L46.4 80.4006L32.5 72.1006C24.8 67.6006 18.4 63.5006 18.3 63.0006C18.1 62.3006 94.6 15.8006 96.3 15.7006C96.7 15.7006 97 23.5006 97 32.9006ZM124.5 70.2006C137.4 77.9006 147.9 84.4006 147.9 84.7006C148 85.6006 101.1 112.901 100.2 112.501C95.7 110.701 53.1 84.2006 53.7 83.6006C55.3 82.1006 99.5 55.8006 100.2 56.0006C100.6 56.1006 111.5 62.5006 124.5 70.2006ZM26.4 81.7006L39 89.2006V121.801V154.501L25.5 162.501C18.1 166.901 12 170.201 12 169.901C12 168.001 12 75.1006 12 74.4006C12 73.2006 12.4 73.4006 26.4 81.7006ZM190 122.601V171.601L175.5 162.901L161 154.301L161.2 122.301L161.5 90.2006L175 82.0006C182.4 77.5006 188.8 73.7006 189.3 73.7006C189.7 73.7006 190 95.7006 190 122.601ZM87.8 118.501L95 122.901V153.701V184.401L70 169.501L45 154.601V123.701V92.8006L62.8 103.401C72.5 109.201 83.8 116.001 87.8 118.501ZM155 124.101V154.601L131.6 168.601C118.7 176.401 107.7 182.701 107.1 182.701C106.3 182.701 106 173.801 106 152.901V123.201L130.3 108.501C143.6 100.501 154.6 93.9006 154.8 93.8006C154.9 93.7006 155 107.401 155 124.101ZM68.9 176.301L95 191.901V207.301C95 215.901 94.7 222.601 94.3 222.401C91.7 221.001 22.8 179.901 19.7 178.001L15.8 175.601L28.2 168.201C34.9 164.101 41 160.801 41.6 160.701C42.3 160.701 54.5 167.701 68.9 176.301ZM172.2 168.301C179.3 172.501 184.8 176.301 184.3 176.701C182.9 177.801 109.2 221.701 107.5 222.301C106.1 222.901 106 221.101 106.2 207.101L106.5 191.201L131.9 175.901C145.9 167.601 157.7 160.701 158.3 160.701C158.8 160.701 165 164.101 172.2 168.301Z" fill="black"/>
<path d="M362.25 91.1V97.1C362.25 102.5 362 106.5 361.5 109.1C361 111.6 359.9 114.05 358.2 116.45C361.8 119.55 364.3 123.1 365.7 127.1C367.2 131 367.95 137.1 367.95 145.4C367.95 153.9 367.65 159.1 367.05 161C366.55 162.9 365.95 164.7 365.25 166.4C364.55 168 363.7 169.25 362.7 170.15C361.8 170.95 360.6 171.9 359.1 173C357.6 174 355.9 174.75 354 175.25C349.4 176.45 344.25 177.05 338.55 177.05L315 175.85V67.85L335.55 66.2C344.55 66.2 350.8 67.5 354.3 70.1C355.7 71.1 356.8 72 357.6 72.8C358.5 73.6 359.25 74.85 359.85 76.55C360.45 78.15 360.9 79.5 361.2 80.6C361.9 82.6 362.25 86.1 362.25 91.1ZM335.4 111.8C341.4 111.8 345.15 110.95 346.65 109.25C348.15 107.55 348.9 103.4 348.9 96.8C348.9 90.2 348.05 85.65 346.35 83.15C344.75 80.55 341.1 79.25 335.4 79.25H328.5L329.55 82.4V108.8L328.2 111.8H335.4ZM338.4 165.05C345.5 165.05 350 163.75 351.9 161.15C353.9 158.45 354.9 154.4 354.9 149C354.9 143.5 354.75 139.55 354.45 137.15C354.15 134.65 353.5 132.2 352.5 129.8C350.4 124.9 345.7 122.45 338.4 122.45H328.05L329.4 125.6V161.9L328.05 165.05H338.4ZM419.754 87.8C417.354 87.8 415.254 86.9 413.454 85.1C411.654 83.2 410.754 81.05 410.754 78.65C410.754 76.15 411.654 74.05 413.454 72.35C415.254 70.65 417.354 69.8 419.754 69.8C422.154 69.8 424.254 70.65 426.054 72.35C427.854 74.05 428.754 76.15 428.754 78.65C428.754 81.05 427.854 83.2 426.054 85.1C424.254 86.9 422.154 87.8 419.754 87.8ZM413.154 167.6V95.45C419.854 95.45 423.754 95.85 424.854 96.65C425.954 97.35 426.504 99.95 426.504 104.45V176.6C419.804 176.6 415.904 176.25 414.804 175.55C413.704 174.75 413.154 172.1 413.154 167.6ZM508.324 135.95L508.474 122.75C508.474 118.75 508.374 115.75 508.174 113.75C507.774 109.55 505.424 107.35 501.124 107.15L487.324 111.2L488.674 115.4V176C481.974 176 478.074 175.65 476.974 174.95C475.874 174.15 475.324 171.5 475.324 167V95.45C481.124 95.45 484.774 95.6 486.274 95.9C487.774 96.2 488.574 97.1 488.674 98.6L499.774 94.4C505.874 94.4 509.874 94.8 511.774 95.6C513.674 96.4 515.124 97.1 516.124 97.7C517.124 98.3 518.024 99.55 518.824 101.45C519.624 103.25 520.174 104.95 520.474 106.55C520.774 108.05 521.074 110.5 521.374 113.9C521.674 118.8 521.824 126.2 521.824 136.1V176C515.124 176 511.174 175.65 509.974 174.95C508.874 174.15 508.324 171.5 508.324 167V135.95ZM594.43 114.05L594.58 110C594.58 108.6 594.43 107.85 594.13 107.75C593.83 107.65 593.48 107.45 593.08 107.15C592.68 106.75 592.13 106.65 591.43 106.85C590.83 107.05 590.08 107.1 589.18 107L581.08 108.05C578.98 108.35 577.18 108.5 575.68 108.5C574.18 108.5 573.03 108.15 572.23 107.45C571.43 106.75 570.63 103.55 569.83 97.85L587.23 94.4C594.33 94.4 598.78 94.95 600.58 96.05C602.38 97.05 603.68 97.9 604.48 98.6C605.28 99.3 605.83 100.7 606.13 102.8C606.63 105.4 606.88 109.5 606.88 115.1V176C601.08 176 597.43 175.7 595.93 175.1C594.43 174.5 593.63 173.05 593.53 170.75L581.08 177.05C578.28 177.05 576.18 177 574.78 176.9C573.48 176.9 572.13 176.5 570.73 175.7C569.43 174.9 568.53 174.1 568.03 173.3C567.63 172.5 567.23 170.8 566.83 168.2C566.33 165.1 566.08 158.75 566.08 149.15V138.8C566.08 127.5 575.93 121.65 595.63 121.25L594.43 117.65V114.05ZM580.18 164.3C580.28 164.3 585.33 162.4 595.33 158.6L593.83 154.25V136.4L595.03 132.95C590.93 133.05 587.33 133.45 584.23 134.15C581.13 134.85 579.58 135.8 579.58 137L579.43 156.8C579.43 161.8 579.68 164.3 580.18 164.3ZM665.426 176C658.726 176 654.776 175.65 653.576 174.95C652.476 174.15 651.926 171.5 651.926 167V95.45C658.526 95.45 662.376 95.65 663.476 96.05C664.576 96.45 665.126 97.8 665.126 100.1L674.726 94.4C677.626 94.4 680.276 94.7 682.676 95.3L685.076 95.45C685.076 101.15 684.676 104.55 683.876 105.65C683.076 106.65 680.526 107.15 676.226 107.15L663.926 111.35L665.426 115.55V176ZM724.061 204.05V193.25C727.961 193.25 731.261 192 733.961 189.5C736.761 187.1 738.161 184.3 738.161 181.1C738.161 180.3 738.111 179.65 738.011 179.15L721.061 95.45H726.911C729.911 95.45 731.811 95.7 732.611 96.2C733.411 96.6 734.061 97.2 734.561 98C735.161 98.8 735.511 99.6 735.611 100.4C735.711 101.1 735.911 102.3 736.211 104L744.761 158H747.011L756.161 95.45C761.461 95.45 764.811 95.7 766.211 96.2C767.711 96.6 768.461 97.95 768.461 100.25L752.561 178.4C751.061 186.4 749.411 191.7 747.611 194.3C745.111 197.8 742.711 200.05 740.411 201.05C735.211 203.05 729.761 204.05 724.061 204.05ZM864.227 88.85C865.127 94.55 865.627 99.35 865.727 103.25C865.927 107.05 866.027 112.1 866.027 118.4V131.3C866.027 138.7 865.777 144.1 865.277 147.5C864.777 150.8 864.227 154 863.627 157.1C863.027 160.1 862.277 162.4 861.377 164C860.477 165.6 859.327 167.4 857.927 169.4C856.627 171.3 855.127 172.7 853.427 173.6C849.227 175.9 844.427 177.05 839.027 177.05L810.527 176V67.7L839.027 66.2C844.227 66.2 848.577 67.25 852.077 69.35C855.677 71.35 858.377 73.65 860.177 76.25C861.977 78.85 863.327 83.05 864.227 88.85ZM839.027 163.7C842.327 163.7 844.777 162.55 846.377 160.25C847.277 158.95 848.027 157.7 848.627 156.5C849.327 155.3 849.827 153.5 850.127 151.1C850.527 148.7 850.827 146.65 851.027 144.95C851.327 143.25 851.527 140.8 851.627 137.6C851.727 134.3 851.777 131.7 851.777 129.8V112.55C851.777 105.55 851.577 100.95 851.177 98.75C850.877 96.45 850.527 94.15 850.127 91.85C849.827 89.45 849.327 87.7 848.627 86.6C848.027 85.4 847.277 84.2 846.377 83C844.777 80.7 842.327 79.55 839.027 79.55H823.577L824.777 83.3V159.95L823.427 163.7H839.027ZM963.448 176C958.348 176 955.248 175.6 954.148 174.8C953.148 174 952.198 171.35 951.298 166.85L946.198 141.5H927.298L921.148 176H917.698C912.898 176 909.848 175.75 908.548 175.25C907.248 174.65 906.598 173.35 906.598 171.35C906.598 169.25 914.198 134.8 929.398 68H943.798L968.398 176H963.448ZM935.848 95.3L930.298 124.55L929.098 127.1H944.548C944.448 127 944.198 126.55 943.798 125.75C943.398 124.85 943.198 124.35 943.198 124.25L937.348 95.3H935.848ZM1038.02 177.05C1026.72 177.05 1019.02 172.75 1014.92 164.15C1010.92 155.55 1008.92 141.35 1008.92 121.55C1008.92 101.75 1011.07 87.6 1015.37 79.1C1019.67 70.5 1027.22 66.2 1038.02 66.2C1048.92 66.2 1056.47 70.45 1060.67 78.95C1064.87 87.45 1066.97 101.65 1066.97 121.55C1066.97 141.45 1064.97 155.7 1060.97 164.3C1057.07 172.8 1049.42 177.05 1038.02 177.05ZM1023.17 121.1C1023.17 135.4 1024.27 146.1 1026.47 153.2C1028.67 160.2 1032.52 163.7 1038.02 163.7C1043.62 163.7 1047.52 160.2 1049.72 153.2C1051.92 146.1 1053.02 135.45 1053.02 121.25C1053.02 93.45 1048.02 79.55 1038.02 79.55C1028.12 79.55 1023.17 93.4 1023.17 121.1Z" fill="black"/>
</svg>
